# xmcd
#
# Track frame offsets: 
#        150
#        12913
#        43543
#        78192
#        98986
#        120407
#        154924
#        179259
#        205869
#        236807
#
# Disc length: 3512 seconds
#
# Revision: 0
# Processed by: cddbd v1.5.2PL0 Copyright (c) Steve Scherf et al.
# Submitted via: ExactAudioCopyFreeDBPlugin 1.0
#
DISCID=760db60a
DTITLE=Styl-Vice - Styl-Vice Vol. 2
DYEAR=2011
DGENRE=World
TTITLE0=Nou Paré Pou Nou Chômé
TTITLE1=C'est Toi Qui La Mangé
TTITLE2=Fo Nou Voyé Zié Si Yo
TTITLE3=C'est Pour Faire Pipi
TTITLE4=Manman Pa Zanmi Aw
TTITLE5=Kompa Netwayé
TTITLE6=Je Sent Tou Amour
TTITLE7=Ou Ka Ped Fil' Aw
TTITLE8=Neg Pa Inmé Neg
TTITLE9=J'suis Pas Marrier
EXTD=
EXTT0=
EXTT1=
EXTT2=
EXTT3=
EXTT4=
EXTT5=
EXTT6=
EXTT7=
EXTT8=
EXTT9=
PLAYORDER=
